<svg version="1.2" xmlns="http://www.w3.org/2000/svg" viewBox="0 0 1710 480" width="1710" height="480">
	<title>logo-black-svg</title>
	<style>
		.s0 { fill: #f5b945 } 
		.s1 { fill: #f7c76a } 
		.s2 { fill: #ffffff } 
		.s3 { fill: #f9d288 } 
		.s4 { fill: #6fa0e3 } 
		.s5 { fill: #a3c2ed } 
		.s6 { fill: #8cb3e9 } 
		.s7 { fill: #4d4d4d } 
	</style>
	<path id="Layer" class="s0" d="m8 8h128v464h-128z"/>
	<path id="Layer" class="s1" d="m216 456l-80 16v-464l80 16z"/>
	<path id="Layer" class="s2" d="m72.7 422c-20 0-36.2-16.2-36.2-36.2 0-20.1 16.2-36.3 36.2-36.3 20.1 0 36.3 16.2 36.3 36.3 0 20-16.2 36.2-36.3 36.2z"/>
	<path id="Layer" class="s3" d="m8 104h128v200h-128z"/>
	<path id="Layer" class="s2" d="m88 272h-32c-8.8 0-16-7.2-16-16 0-8.8 7.2-16 16-16h32c8.8 0 16 7.2 16 16 0 8.8-7.2 16-16 16z"/>
	<path id="Layer" class="s4" d="m216 8h128v464h-128z"/>
	<path id="Layer" class="s2" d="m280.7 422c-20 0-36.2-16.2-36.2-36.2 0-20.1 16.2-36.3 36.2-36.3 20.1 0 36.3 16.2 36.3 36.3 0 20-16.2 36.2-36.3 36.2z"/>
	<path id="Layer" class="s5" d="m216 104h128v200h-128z"/>
	<path id="Layer" class="s2" d="m296 272h-32c-8.8 0-16-7.2-16-16 0-8.8 7.2-16 16-16h32c8.8 0 16 7.2 16 16 0 8.8-7.2 16-16 16z"/>
	<path id="Layer" class="s6" d="m472 432l-128 32v-464l128 32z"/>
	<path id="Layer" class="s5" d="m472 288l-128 16v-200l128 16z"/>
	<g id="Layer">
		<path id="Layer" fill-rule="evenodd" class="s7" d="m117 385.7c0 24.5-19.8 44.3-44.2 44.3-24.4 0-44.3-19.8-44.3-44.3 0-24.4 19.9-44.2 44.3-44.2 24.4 0 44.2 19.8 44.2 44.2zm-16 0c0-15.5-12.7-28.2-28.2-28.2-15.6 0-28.3 12.7-28.3 28.2 0 15.6 12.7 28.3 28.3 28.3 15.5 0 28.2-12.7 28.2-28.3z"/>
		<path id="Layer" class="s7" d="m104 136h-64c-4.4 0-8 3.6-8 8 0 4.4 3.6 8 8 8h64c4.4 0 8-3.6 8-8 0-4.4-3.6-8-8-8z"/>
		<path id="Layer" class="s7" d="m104 168h-64c-4.4 0-8 3.6-8 8 0 4.4 3.6 8 8 8h64c4.4 0 8-3.6 8-8 0-4.4-3.6-8-8-8z"/>
		<path id="Layer" class="s7" d="m104 200h-64c-4.4 0-8 3.6-8 8 0 4.4 3.6 8 8 8h64c4.4 0 8-3.6 8-8 0-4.4-3.6-8-8-8z"/>
		<path id="Layer" fill-rule="evenodd" class="s7" d="m112 256c0 13.2-10.8 24-24 24h-32c-13.2 0-24-10.8-24-24 0-13.2 10.8-24 24-24h32c13.2 0 24 10.8 24 24zm-16 0c0-4.4-3.6-8-8-8h-32c-4.4 0-8 3.6-8 8 0 4.4 3.6 8 8 8h32c4.4 0 8-3.6 8-8z"/>
		<path id="Layer" fill-rule="evenodd" class="s7" d="m325 385.7c0 24.5-19.8 44.3-44.2 44.3-24.4 0-44.3-19.8-44.3-44.3 0-24.4 19.9-44.2 44.3-44.2 24.4 0 44.2 19.8 44.2 44.2zm-16 0c0-15.5-12.7-28.2-28.2-28.2-15.6 0-28.3 12.7-28.3 28.2 0 15.6 12.7 28.3 28.3 28.3 15.5 0 28.2-12.7 28.2-28.3z"/>
		<path id="Layer" class="s7" d="m312 136h-64c-4.4 0-8 3.6-8 8 0 4.4 3.6 8 8 8h64c4.4 0 8-3.6 8-8 0-4.4-3.6-8-8-8z"/>
		<path id="Layer" class="s7" d="m312 168h-64c-4.4 0-8 3.6-8 8 0 4.4 3.6 8 8 8h64c4.4 0 8-3.6 8-8 0-4.4-3.6-8-8-8z"/>
		<path id="Layer" class="s7" d="m312 200h-64c-4.4 0-8 3.6-8 8 0 4.4 3.6 8 8 8h64c4.4 0 8-3.6 8-8 0-4.4-3.6-8-8-8z"/>
		<path id="Layer" fill-rule="evenodd" class="s7" d="m320 256c0 13.2-10.8 24-24 24h-32c-13.2 0-24-10.8-24-24 0-13.2 10.8-24 24-24h32c13.2 0 24 10.8 24 24zm-16 0c0-4.4-3.6-8-8-8h-32c-4.4 0-8 3.6-8 8 0 4.4 3.6 8 8 8h32c4.4 0 8-3.6 8-8z"/>
		<path id="Layer" fill-rule="evenodd" class="s7" d="m480 40v400c0 3.7-2.5 6.9-6.1 7.8l-128 32q-0.9 0.2-1.9 0.2h-128c-4.4 0-8-3.6-8-8v-6.2l-70.4 14q-0.8 0.2-1.6 0.2h-128c-4.4 0-8-3.6-8-8v-464c0-4.4 3.6-8 8-8h128c0.3 0 0.6 0.1 0.9 0.2 0.2 0 0.4-0.1 0.7 0l70.4 14v-6.2c0-4.4 3.6-8 8-8h128c0.4 0 0.7 0.2 1.1 0.2 0.3 0.1 0.6 0 0.8 0l128 32c3.6 0.9 6.1 4.1 6.1 7.8zm-256 256h112v-184h-112zm128-1.1l112-14v-153.8l-112-14zm112-248.7l-112-28v78.7l112 14zm-240 49.7h112v-80h-112zm-208 200h112v-184h-112zm0-280v80h112v-80zm0 448h112v-152h-112zm192-14.5v-418.9l-64-12.8v444.5zm16 14.5h112v-152h-112zm240-30.2v-136.7l-112 14v150.7z"/>
		<path id="BANCO DE CONTEÚDOS" class="s2" aria-label="BANCO DE
CONTEÚDOS"  d="m530.4 185v-136.5h39.9q11.5 0 20.4 2.6 8.9 2.6 15.1 7.5 6.1 4.8 9.2 11.5 3.2 6.7 3.2 14.9 0 5.7-1.8 10.3-1.7 4.5-4.4 8-2.6 3.5-5.8 6.1-3.1 2.6-5.9 4.4 13.6 3.1 21.1 11.5 7.7 8.3 7.7 21.2 0 8.6-3.7 15.7-3.5 7.1-10.3 12.3-6.7 5-16.5 7.8-9.6 2.7-21.7 2.7zm50.9-63.4h-31.3v48.7h24.5q7.8 0 14.2-1.4 6.4-1.5 10.9-4.4 4.6-3 7.1-7.4 2.6-4.5 2.6-10.6 0-6.2-2-10.8-1.9-4.6-5.6-7.7-3.6-3.2-8.8-4.8-5.1-1.6-11.6-1.6zm-13.3-58.4h-18v43.7h39.5q1.3-1.6 2.8-3.4 1.6-1.8 2.9-4.3 1.4-2.5 2.3-5.9 1-3.4 1-8.3 0-11.1-8-16.4-8-5.4-22.5-5.4zm180 121.8l-12.1-34.7h-56.4l-12 34.7h-19.7l49.8-136.5h20l50.1 136.5zm-40.3-115.4l-23.1 66h46.1zm85.2 115.4v-136.4h19.6v0.1l0.1-0.1 70.4 105.9v-105.9h19.6v136.4h-19.6l-70.5-106.1v106.1zm139.9-68.4q0-15.9 4.3-28.8 4.4-13 12.6-22.1 8.1-9.2 19.6-14.1 11.7-5.1 26.2-5.1 5.2 0 9.3 0.6 4.2 0.5 7.6 1.5 3.5 0.9 6.4 2.1 2.9 1.2 5.5 2.5l-5.5 13q-4.9-2.3-10.6-3.6-5.6-1.4-12.7-1.4-9.6 0-17.5 3.2-8 3.2-13.7 10-5.6 6.8-8.7 17.2-3.1 10.4-3.1 25 0 14.5 3.2 25.1 3.3 10.5 9.2 17.3 6 6.9 14.3 10.2 8.3 3.2 18.5 3.2 4.4 0 8-0.5 3.7-0.6 6.8-1.5 3.1-0.9 5.7-1.9 2.6-1.1 4.8-2.1l4.3 12.8q-5.4 3.3-13 5.6-7.5 2.2-18.8 2.2-14.5 0-26.2-5-11.5-5.1-19.6-14.3-8.2-9.3-12.6-22.2-4.3-13.1-4.3-28.9zm111.6 0.2q0-16.2 4.3-29.1 4.4-13.1 12.3-22.2 7.8-9.1 18.7-14 11-5 24.1-5 13.1 0 24 5 11 4.9 18.9 14 7.9 9.1 12.3 22.2 4.4 12.9 4.4 29.1 0 16.2-4.4 29.3-4.4 12.9-12.3 22.1-7.9 9.1-18.9 14-10.9 4.8-24 4.8-13.1 0-24.1-4.8-10.9-4.9-18.7-14-7.9-9.2-12.3-22.1-4.3-13.1-4.3-29.3zm19.7 0q0 13.9 2.9 24.4 2.9 10.4 8.1 17.3 5.3 7 12.7 10.5 7.3 3.4 16 3.4 8.9 0 16.2-3.4 7.4-3.5 12.6-10.5 5.3-6.9 8.3-17.3 2.9-10.5 2.9-24.4 0-14-2.9-24.4-3-10.4-8.3-17.4-5.2-6.9-12.6-10.3-7.3-3.5-16.2-3.5-8.7 0-16 3.5-7.4 3.4-12.7 10.3-5.2 7-8.1 17.4-2.9 10.4-2.9 24.4zm178.8 68.2v-136.4h42.2q14.9 0 27 4.9 12.1 4.8 20.5 13.7 8.6 8.8 13.2 21.4 4.6 12.5 4.6 28 0 15.4-4.6 28.1-4.6 12.5-13.2 21.6-8.4 8.9-20.5 13.8-12.1 4.9-27 4.9zm39.9-121.8h-20.3v107.2h20.3q10.6 0 19.5-3.1 8.8-3.2 15.1-9.8 6.4-6.6 9.8-16.7 3.5-10.2 3.5-24.2 0-14-3.5-24.1-3.4-10.1-9.8-16.6-6.3-6.5-15.1-9.6-8.9-3.1-19.5-3.1zm179.7 121.8h-80.3v-136.4h80.3v14.6h-60.7v44.6h54.2v14.6h-54.2v48h60.7zm-938.3 177.5q0-15.8 4.3-28.8 4.4-12.9 12.6-22 8.1-9.3 19.6-14.2 11.7-5 26.2-5 5.2 0 9.3 0.6 4.2 0.5 7.6 1.4 3.5 0.9 6.4 2.1 2.9 1.2 5.5 2.5l-5.5 13.1q-4.9-2.3-10.6-3.7-5.6-1.4-12.7-1.4-9.6 0-17.5 3.3-8 3.2-13.7 10-5.6 6.7-8.7 17.2-3.1 10.4-3.1 24.9 0 14.6 3.2 25.1 3.3 10.6 9.2 17.4 6 6.8 14.3 10.1 8.3 3.2 18.5 3.2 4.4 0 8-0.5 3.7-0.6 6.8-1.5 3.1-0.9 5.7-1.9 2.6-1.1 4.8-2.1l4.3 12.9q-5.4 3.3-13 5.6-7.5 2.2-18.8 2.2-14.5 0-26.2-5-11.5-5.1-19.6-14.4-8.2-9.2-12.6-22.2-4.3-13-4.3-28.9zm111.6 0.2q0-16.1 4.3-29.1 4.4-13 12.3-22.1 7.8-9.2 18.7-14.1 11-4.9 24.1-4.9 13.1 0 24 4.9 11 4.9 18.9 14.1 7.9 9.1 12.3 22.1 4.4 13 4.4 29.1 0 16.3-4.4 29.3-4.4 13-12.3 22.1-7.9 9.2-18.9 14.1-10.9 4.8-24 4.8-13.1 0-24.1-4.8-10.9-4.9-18.7-14.1-7.9-9.1-12.3-22.1-4.3-13-4.3-29.3zm19.7 0q0 14 2.9 24.4 2.9 10.5 8.1 17.4 5.3 6.9 12.7 10.4 7.3 3.4 16 3.4 8.9 0 16.2-3.4 7.4-3.5 12.6-10.4 5.3-6.9 8.3-17.4 2.9-10.4 2.9-24.4 0-13.9-2.9-24.3-3-10.5-8.3-17.4-5.2-6.9-12.6-10.3-7.3-3.6-16.2-3.6-8.7 0-16 3.6-7.4 3.4-12.7 10.3-5.2 6.9-8.1 17.4-2.9 10.4-2.9 24.3zm128.7 68.3v-136.5h19.7v0.1l0.1-0.1 70.4 106v-106h19.6v136.5h-19.6l-70.5-106.2v106.2zm240.2-121.8h-42.9v121.8h-19.7v-121.8h-42.6v-14.7h105.2zm105.5 121.8h-80.4v-136.5h80.4v14.7h-60.7v44.6h54.2v14.6h-54.2v48h60.7zm114.1-41.4v-95.1h19.7v95.1q0 10.5-3.9 18.5-3.8 8-10.8 13.6-7.1 5.6-16.9 8.5-9.8 2.8-21.8 2.8-11.8 0-21.6-2.8-9.7-2.9-16.7-8.5-6.9-5.6-10.9-13.6-3.8-8-3.8-18.5v-95.1h19.7v95.1q0 7 2.4 12.4 2.5 5.3 6.9 8.9 4.5 3.6 10.6 5.5 6.1 1.9 13.4 1.9 7.5 0 13.8-1.9 6.2-1.9 10.6-5.5 4.4-3.6 6.8-8.9 2.5-5.4 2.5-12.4zm-42.3-110.4l21.4-26.9 21.3 6.1-28.6 24.9zm98.3 151.7v-136.5h42.1q15 0 27 4.9 12.2 4.8 20.6 13.8 8.5 8.8 13.2 21.4 4.6 12.5 4.6 27.9 0 15.5-4.6 28.1-4.7 12.6-13.2 21.6-8.4 9-20.6 13.9-12 4.9-27 4.9zm40-121.8h-20.3v107.1h20.3q10.6 0 19.4-3.1 8.9-3.2 15.2-9.7 6.3-6.6 9.7-16.8 3.5-10.1 3.5-24.2 0-13.9-3.5-24-3.4-10.2-9.7-16.6-6.3-6.5-15.2-9.6-8.8-3.1-19.4-3.1zm92.1 53.6q0-16.2 4.3-29.2 4.4-13 12.3-22.1 7.8-9.2 18.7-14.1 11-4.9 24.1-4.9 13.1 0 24 4.9 11 4.9 18.9 14.1 7.9 9.1 12.3 22.1 4.4 13 4.4 29.2 0 16.2-4.4 29.3-4.4 12.9-12.3 22-7.9 9.2-18.9 14.1-10.9 4.8-24 4.8-13.1 0-24.1-4.8-10.9-4.9-18.7-14.1-7.9-9.1-12.3-22-4.3-13.1-4.3-29.3zm19.7 0q0 13.9 2.9 24.3 2.9 10.5 8.1 17.4 5.3 6.9 12.7 10.4 7.3 3.4 16 3.4 8.8 0 16.2-3.4 7.4-3.5 12.6-10.4 5.3-6.9 8.2-17.4 3-10.4 3-24.3 0-14-3-24.4-2.9-10.5-8.2-17.4-5.2-6.9-12.6-10.3-7.4-3.5-16.2-3.5-8.7 0-16 3.5-7.4 3.4-12.7 10.3-5.2 6.9-8.1 17.4-2.9 10.4-2.9 24.4zm211 32.3q0 8.6-3.3 15.6-3.2 6.9-9.2 12-6 4.9-14.6 7.6-8.5 2.7-19 2.7-6 0-12.1-0.5-6-0.6-11.7-1.6-5.6-1-10.7-2.4-4.9-1.5-8.4-3.3l4.9-14.5q4.2 1.5 8.6 2.9 4.3 1.4 8.8 2.5 4.6 1 9.6 1.6 5 0.6 10.8 0.6 6.2 0 11.1-1.5 4.9-1.6 8.3-4.5 3.5-3 5.3-7.1 2-4.2 2-9.5 0-5-2.3-8.8-2.2-3.8-6.3-6.8-4.1-3.1-9.9-5.5-5.8-2.5-13-4.6-8-2.4-15-6-7-3.7-12.3-8.6-5.1-4.9-8.1-11-2.9-6.2-2.9-13.8 0-8.6 3.2-15.6 3.3-7.1 9.3-12.1 5.9-5 14.3-7.7 8.4-2.7 18.9-2.7 6.3 0 12.1 0.8 5.8 0.8 10.9 2 5 1.2 9.1 2.6 4.1 1.4 7 2.6l-4.3 15.1q-4.1-1.5-7.9-3-3.8-1.5-8-2.7-4-1.2-8.5-1.9-4.5-0.8-10-0.8-6.6 0-11.6 1.7-4.9 1.6-8.2 4.6-3.3 3-5 7.1-1.6 4.1-1.6 9 0 8.4 6.6 14.6 6.6 6.1 21.6 10.7 10.3 3.3 18.1 7.2 7.9 4 13 8.9 5.2 4.8 7.8 10.8 2.6 5.9 2.6 13.3z"/>
	</g>
</svg>